<svg width="43" height="44" viewBox="0 0 43 44" fill="none" xmlns="http://www.w3.org/2000/svg">
<path d="M21.5 17.6C25.5611 17.6 28.81 14.63 28.81 11C28.81 7.37 25.5611 4.4 21.5 4.4C17.4389 4.4 14.19 7.37 14.19 11C14.19 14.63 17.4389 17.6 21.5 17.6ZM21.5 22C14.8111 22 9.41222 17.072 9.41222 11C9.41222 4.928 14.8111 0 21.5 0C28.1889 0 33.5878 4.928 33.5878 11C33.5878 17.072 28.1889 22 21.5 22ZM4.77778 39.6H38.2222V36.674C38.2222 32.824 32.7039 28.842 21.5 28.842C10.2961 28.842 4.77778 32.824 4.77778 36.674V39.6ZM21.5 24.442C37.41 24.442 43 31.768 43 36.674V44H0V36.674C0 31.768 5.59 24.442 21.5 24.442V24.442Z" fill="black"/>
</svg>
