<svg width="48" height="39" viewBox="0 0 48 39" fill="none" xmlns="http://www.w3.org/2000/svg">
<path d="M44.5714 0H3.42857C2.51926 0 1.64719 0.410892 1.00421 1.14228C0.361223 1.87368 0 2.86566 0 3.9V35.1C0 36.1343 0.361223 37.1263 1.00421 37.8577C1.64719 38.5891 2.51926 39 3.42857 39H44.5714C45.4807 39 46.3528 38.5891 46.9958 37.8577C47.6388 37.1263 48 36.1343 48 35.1V3.9C48 2.86566 47.6388 1.87368 46.9958 1.14228C46.3528 0.410892 45.4807 0 44.5714 0V0ZM40.8 3.9L24 17.121L7.2 3.9H40.8ZM3.42857 35.1V5.6745L23.0229 21.099C23.3098 21.3254 23.6507 21.4468 24 21.4468C24.3493 21.4468 24.6902 21.3254 24.9771 21.099L44.5714 5.6745V35.1H3.42857Z" fill="black"/>
</svg>
