<svg width="47" height="44" viewBox="0 0 47 44" fill="none" xmlns="http://www.w3.org/2000/svg">
<path fill-rule="evenodd" clip-rule="evenodd" d="M36.5556 7.76471C36.5556 5.70538 35.7303 3.73039 34.2612 2.27423C32.7922 0.818065 30.7998 0 28.7222 0H18.2778C16.2002 0 14.2078 0.818065 12.7388 2.27423C11.2697 3.73039 10.4444 5.70538 10.4444 7.76471H7.83333C5.7558 7.76471 3.76337 8.58277 2.29433 10.0389C0.825296 11.4951 0 13.4701 0 15.5294V36.2353C0 38.2946 0.825296 40.2696 2.29433 41.7258C3.76337 43.1819 5.7558 44 7.83333 44H39.1667C41.2442 44 43.2366 43.1819 44.7057 41.7258C46.1747 40.2696 47 38.2946 47 36.2353V15.5294C47 13.4701 46.1747 11.4951 44.7057 10.0389C43.2366 8.58277 41.2442 7.76471 39.1667 7.76471H36.5556ZM28.7222 5.17647H18.2778C17.5853 5.17647 16.9211 5.44916 16.4314 5.93455C15.9418 6.41994 15.6667 7.07826 15.6667 7.76471H31.3333C31.3333 7.07826 31.0582 6.41994 30.5686 5.93455C30.0789 5.44916 29.4147 5.17647 28.7222 5.17647ZM7.83333 12.9412H39.1667C39.8592 12.9412 40.5233 13.2139 41.013 13.6993C41.5027 14.1846 41.7778 14.843 41.7778 15.5294V36.2353C41.7778 36.9217 41.5027 37.5801 41.013 38.0655C40.5233 38.5508 39.8592 38.8235 39.1667 38.8235H7.83333C7.14082 38.8235 6.47668 38.5508 5.987 38.0655C5.49732 37.5801 5.22222 36.9217 5.22222 36.2353V15.5294C5.22222 14.843 5.49732 14.1846 5.987 13.6993C6.47668 13.2139 7.14082 12.9412 7.83333 12.9412Z" fill="black"/>
</svg>
