<svg width="83" height="31" viewBox="0 0 83 31" fill="none" xmlns="http://www.w3.org/2000/svg">
<path d="M0.32 22C0.28 22 0.26 21.98 0.26 21.94C0.26 21.8867 0.293333 21.8267 0.36 21.76C0.413333 21.68 0.466667 21.6467 0.52 21.66C0.853333 21.66 1.14667 21.6667 1.4 21.68C1.65333 21.68 1.88 21.68 2.08 21.68C2.57333 21.68 2.93333 21.6333 3.16 21.54C3.38667 21.4333 3.55333 21.2133 3.66 20.88C3.78 20.5467 3.91333 20.04 4.06 19.36C4.38 17.88 4.63333 16.4533 4.82 15.08C5.00667 13.7067 5.16667 12.2733 5.3 10.78C5.32667 10.5133 5.26 10.28 5.1 10.08C4.95333 9.88 4.78667 9.76667 4.6 9.74C4.46667 9.71333 4.23333 9.69333 3.9 9.68C3.58 9.66667 3.26667 9.66 2.96 9.66C2.65333 9.64667 2.44667 9.64667 2.34 9.66C2.26 9.66 2.22 9.63333 2.22 9.58C2.22 9.52667 2.25333 9.47333 2.32 9.42C2.38667 9.35333 2.45333 9.32 2.52 9.32C3.06667 9.32 3.7 9.33333 4.42 9.36C5.15333 9.38667 5.84 9.4 6.48 9.4C6.64 9.4 6.79333 9.4 6.94 9.4C7.08667 9.4 7.22667 9.39333 7.36 9.38C7.64 9.36667 8.03333 9.35333 8.54 9.34C9.06 9.31333 9.58667 9.3 10.12 9.3C10.2267 9.3 10.28 9.36 10.28 9.48C10.28 9.58667 10.24 9.64 10.16 9.64C10.0933 9.64 10.0067 9.63333 9.9 9.62C9.79333 9.60667 9.65333 9.6 9.48 9.6C9.34667 9.6 9.22667 9.60667 9.12 9.62C9.02667 9.62 8.92667 9.62667 8.82 9.64C8.40667 9.68 8.09333 9.80667 7.88 10.02C7.68 10.2333 7.5 10.68 7.34 11.36C7.3 11.52 7.24667 11.7533 7.18 12.06C7.12667 12.3533 7.07333 12.6667 7.02 13C6.96667 13.32 6.92 13.6133 6.88 13.88C6.84 14.1467 6.82 14.3333 6.82 14.44C6.82 14.6533 6.95333 14.76 7.22 14.76H12.64C12.84 14.76 12.9867 14.7267 13.08 14.66C13.1867 14.5933 13.2467 14.4533 13.26 14.24C13.3267 13.6267 13.3933 13.0067 13.46 12.38C13.54 11.7533 13.6133 11.1133 13.68 10.46C13.7067 10.1933 13.64 10 13.48 9.88C13.3333 9.74667 13.2 9.66667 13.08 9.64C13 9.62667 12.9067 9.62 12.8 9.62C12.6933 9.60667 12.5867 9.6 12.48 9.6C12.3067 9.6 12.1333 9.60667 11.96 9.62C11.8 9.63333 11.6667 9.64 11.56 9.64C11.4933 9.64 11.46 9.61333 11.46 9.56C11.46 9.52 11.4933 9.47333 11.56 9.42C11.6267 9.35333 11.6867 9.32 11.74 9.32C11.8733 9.32 12.1533 9.34 12.58 9.38C13.02 9.40667 13.6467 9.42 14.46 9.42C14.78 9.42 15.1733 9.41333 15.64 9.4C16.12 9.37333 16.6 9.35333 17.08 9.34C17.5733 9.32667 17.9933 9.32 18.34 9.32C18.5 9.32 18.66 9.32667 18.82 9.34C18.9933 9.34 19.16 9.34 19.32 9.34H19.34C19.38 9.34 19.4 9.36 19.4 9.4C19.4 9.45333 19.3667 9.52 19.3 9.6C19.2467 9.66667 19.1867 9.69333 19.12 9.68C18.7867 9.68 18.4867 9.67333 18.22 9.66C17.9667 9.64667 17.7333 9.64 17.52 9.64C17.04 9.64 16.6867 9.69333 16.46 9.8C16.2467 9.90667 16.0867 10.1267 15.98 10.46C15.8733 10.78 15.7467 11.2867 15.6 11.98C15.5067 12.4067 15.4133 12.9333 15.32 13.56C15.2267 14.1733 15.1267 14.8333 15.02 15.54C14.9267 16.2467 14.84 16.94 14.76 17.62C14.68 18.3 14.6133 18.92 14.56 19.48C14.5067 20.04 14.4733 20.4733 14.46 20.78C14.4467 21.0333 14.5133 21.2267 14.66 21.36C14.8067 21.4933 14.94 21.5733 15.06 21.6C15.2067 21.6133 15.44 21.6267 15.76 21.64C16.08 21.6533 16.3933 21.6667 16.7 21.68C17.02 21.68 17.2333 21.68 17.34 21.68C17.4067 21.68 17.44 21.7067 17.44 21.76C17.44 21.8 17.4067 21.8533 17.34 21.92C17.2733 21.9733 17.2067 22 17.14 22C16.6067 22 15.9733 21.9867 15.24 21.96C14.5067 21.9333 13.82 21.92 13.18 21.92C13.0067 21.92 12.8467 21.9267 12.7 21.94C12.5533 21.94 12.4133 21.94 12.28 21.94C12.04 21.94 11.7533 21.9467 11.42 21.96C11.1 21.9733 10.8067 21.9867 10.54 22C10.2867 22 10.1333 22 10.08 22C9.97333 22 9.92 21.9333 9.92 21.8C9.92 21.7067 9.96667 21.66 10.06 21.66C10.2067 21.66 10.3333 21.6667 10.44 21.68C10.56 21.6933 10.7333 21.7 10.96 21.7C11.24 21.7 11.4667 21.6467 11.64 21.54C11.8267 21.4333 11.9933 21.2133 12.14 20.88C12.2867 20.5467 12.4267 20.04 12.56 19.36C12.6267 19.0667 12.6867 18.74 12.74 18.38C12.7933 18.0067 12.84 17.64 12.88 17.28C12.9333 16.92 12.9733 16.6133 13 16.36C13.0267 16.0933 13.04 15.9333 13.04 15.88C13.04 15.68 12.9067 15.58 12.64 15.58H7C6.86667 15.58 6.76667 15.6333 6.7 15.74C6.63333 15.8467 6.58667 15.98 6.56 16.14C6.52 16.5 6.47333 16.9067 6.42 17.36C6.36667 17.8 6.30667 18.2467 6.24 18.7C6.18667 19.1533 6.14 19.5667 6.1 19.94C6.07333 20.3133 6.06 20.6067 6.06 20.82C6.06 21.06 6.12667 21.2467 6.26 21.38C6.40667 21.5 6.54667 21.5733 6.68 21.6C6.82667 21.6267 7.00667 21.6467 7.22 21.66C7.43333 21.6733 7.64 21.68 7.84 21.68C8.05333 21.68 8.20667 21.68 8.3 21.68H8.32C8.38667 21.68 8.42 21.7067 8.42 21.76C8.42 21.8133 8.38667 21.8733 8.32 21.94C8.26667 21.9933 8.2 22.0133 8.12 22C7.68 21.9733 7.22 21.9533 6.74 21.94C6.26 21.9267 5.78 21.92 5.3 21.92C5.06 21.92 4.82 21.92 4.58 21.92C4.35333 21.92 4.12667 21.9267 3.9 21.94C3.7 21.94 3.4 21.9467 3 21.96C2.61333 21.9733 2.18 21.9867 1.7 22C1.23333 22 0.78 22 0.34 22H0.32ZM19.6919 22.38C19.3052 22.38 18.9452 22.3267 18.6119 22.22C18.2919 22.1133 18.0185 21.94 17.7919 21.7C17.6985 21.5933 17.5719 21.4533 17.4119 21.28C17.2519 21.1067 17.1719 20.9333 17.1719 20.76C17.1719 20.6667 17.1985 20.5867 17.2519 20.52C17.4385 20.2667 17.6252 20.0267 17.8119 19.8C18.0119 19.56 18.1985 19.1867 18.3719 18.68C18.4119 18.5733 18.4452 18.46 18.4719 18.34C18.4985 18.2067 18.5585 18.1667 18.6519 18.22C18.6919 18.2333 18.6919 18.3333 18.6519 18.52C18.6252 18.7067 18.6119 18.86 18.6119 18.98C18.6119 19.42 18.7252 19.8267 18.9519 20.2C19.1785 20.56 19.4785 20.8533 19.8519 21.08C20.2252 21.3067 20.6319 21.42 21.0719 21.42C21.4185 21.42 21.7519 21.3267 22.0719 21.14C22.3919 20.9533 22.6519 20.6933 22.8519 20.36C23.0652 20.0267 23.1719 19.64 23.1719 19.2C23.1719 18.8667 23.0719 18.6067 22.8719 18.42C22.6719 18.22 22.4185 18.0733 22.1119 17.98C21.8185 17.8867 21.5052 17.82 21.1719 17.78C20.8519 17.74 20.5719 17.7133 20.3319 17.7C19.5585 17.6333 18.9652 17.44 18.5519 17.12C18.1519 16.7867 17.9519 16.4267 17.9519 16.04C17.9519 15.6267 18.1052 15.22 18.4119 14.82C18.7319 14.42 19.1385 14.06 19.6319 13.74C20.1385 13.4067 20.6919 13.1467 21.2919 12.96C21.9052 12.76 22.4985 12.66 23.0719 12.66C23.5119 12.66 23.9252 12.7267 24.3119 12.86C24.6985 12.98 25.0319 13.1933 25.3119 13.5C25.4719 13.66 25.5519 13.8133 25.5519 13.96C25.5519 14.0667 25.5185 14.1733 25.4519 14.28C25.3985 14.3867 25.3519 14.5067 25.3119 14.64C25.3119 14.64 25.2519 14.7067 25.1319 14.84C25.0119 14.9733 24.8719 15.1467 24.7119 15.36C24.5652 15.5733 24.4319 15.8067 24.3119 16.06C24.2585 16.18 24.2052 16.24 24.1519 16.24C24.1119 16.24 24.0919 16.2067 24.0919 16.14C24.0919 16.0867 24.1119 16.02 24.1519 15.94C24.1652 15.9 24.1785 15.8333 24.1919 15.74C24.2052 15.6333 24.2119 15.5133 24.2119 15.38C24.2119 15.1 24.1519 14.7933 24.0319 14.46C23.9119 14.1133 23.6452 13.84 23.2319 13.64C22.9385 13.4933 22.6252 13.42 22.2919 13.42C21.9585 13.42 21.6319 13.4933 21.3119 13.64C21.0052 13.7733 20.7452 13.9733 20.5319 14.24C20.3319 14.5067 20.2319 14.8333 20.2319 15.22C20.2319 15.7 20.3719 16.0467 20.6519 16.26C20.9452 16.4733 21.2985 16.6067 21.7119 16.66C22.1252 16.7133 22.5052 16.74 22.8519 16.74C23.2919 16.74 23.6985 16.7667 24.0719 16.82C24.4585 16.8733 24.7652 16.9933 24.9919 17.18C25.2319 17.3667 25.3519 17.6667 25.3519 18.08C25.3519 18.6533 25.1719 19.2 24.8119 19.72C24.4519 20.24 23.9852 20.7 23.4119 21.1C22.8519 21.5 22.2385 21.8133 21.5719 22.04C20.9185 22.2667 20.2919 22.38 19.6919 22.38ZM28.94 22.12C28.4467 22.12 28.0533 21.9533 27.76 21.62C27.48 21.2867 27.34 20.7533 27.34 20.02C27.34 19.8067 27.3533 19.58 27.38 19.34C27.4067 19.0867 27.4467 18.82 27.5 18.54C27.5667 18.1933 27.6333 17.7733 27.7 17.28C27.78 16.7867 27.8467 16.2933 27.9 15.8C27.9667 15.3067 28.0133 14.8867 28.04 14.54C28.08 14.0867 28.0333 13.7667 27.9 13.58C27.7667 13.3933 27.56 13.28 27.28 13.24C27 13.2 26.6467 13.18 26.22 13.18C25.9667 13.18 25.84 13.14 25.84 13.06C25.84 13.0067 25.8733 12.96 25.94 12.92C26.02 12.8667 26.0933 12.84 26.16 12.84L27.4 12.86C27.6667 12.86 27.92 12.8667 28.16 12.88C28.4133 12.88 28.6467 12.88 28.86 12.88C29.1933 12.88 29.4933 12.8733 29.76 12.86C30.0267 12.8467 30.2667 12.84 30.48 12.84C30.6267 12.84 30.7 12.8867 30.7 12.98C30.7 13.0333 30.6733 13.1067 30.62 13.2C30.58 13.28 30.5467 13.36 30.52 13.44C30.44 13.68 30.3533 14.04 30.26 14.52C30.1667 15 30.0667 15.5333 29.96 16.12C29.8667 16.6933 29.78 17.26 29.7 17.82C29.62 18.3667 29.5533 18.84 29.5 19.24C29.4867 19.3333 29.4733 19.4267 29.46 19.52C29.46 19.6133 29.46 19.7067 29.46 19.8C29.46 20.2533 29.5333 20.6 29.68 20.84C29.8267 21.08 30.0067 21.2 30.22 21.2C30.54 21.2 30.8067 21.0333 31.02 20.7C31.2333 20.3533 31.4067 19.9333 31.54 19.44C31.6733 18.9467 31.7667 18.4667 31.82 18C31.9267 17.2267 32.02 16.4933 32.1 15.8C32.18 15.1067 32.2467 14.5133 32.3 14.02C32.3533 13.5267 32.3867 13.1933 32.4 13.02C32.4267 12.9133 32.4733 12.86 32.54 12.86C32.62 12.86 32.66 12.9133 32.66 13.02L32.08 18.08C32.04 18.4533 31.9667 18.8733 31.86 19.34C31.7667 19.7933 31.6133 20.2333 31.4 20.66C31.1867 21.0867 30.88 21.44 30.48 21.72C30.0933 21.9867 29.58 22.12 28.94 22.12ZM31.96 22.02C31.84 22.02 31.78 21.98 31.78 21.9C31.78 21.78 31.84 21.52 31.96 21.12C32.08 20.72 32.2133 20.0733 32.36 19.18C32.4933 18.46 32.5933 17.7333 32.66 17C32.74 16.2667 32.8 15.58 32.84 14.94C32.8933 14.3 32.94 13.7667 32.98 13.34C33.0067 13.14 33.0333 13.02 33.06 12.98C33.1 12.94 33.1867 12.92 33.32 12.92C33.9733 12.92 34.6733 12.9067 35.42 12.88C36.18 12.8533 36.8267 12.84 37.36 12.84C37.4533 12.84 37.5 12.88 37.5 12.96C37.5 13.0133 37.4667 13.0733 37.4 13.14C37.3467 13.2067 37.2867 13.2333 37.22 13.22C37.0333 13.22 36.8733 13.22 36.74 13.22C36.62 13.2067 36.5267 13.2 36.46 13.2C36.1533 13.2 35.88 13.2667 35.64 13.4C35.4 13.52 35.24 13.74 35.16 14.06C35.0667 14.4467 34.9667 14.92 34.86 15.48C34.7667 16.04 34.6733 16.6333 34.58 17.26C34.5 17.8867 34.4333 18.5 34.38 19.1C34.3267 19.7 34.3 20.24 34.3 20.72C34.3 20.9867 34.3667 21.1867 34.5 21.32C34.6467 21.4533 34.7867 21.5333 34.92 21.56C35.0667 21.5867 35.2533 21.6067 35.48 21.62C35.7067 21.6333 35.92 21.6467 36.12 21.66C36.3333 21.66 36.4933 21.66 36.6 21.66H36.62C36.6867 21.66 36.72 21.6867 36.72 21.74C36.72 21.7933 36.6867 21.8533 36.62 21.92C36.5533 21.9733 36.48 22 36.4 22C35.64 22 34.9067 22 34.2 22C33.4933 22.0133 32.7467 22.02 31.96 22.02ZM38.0509 22.12C37.7976 22.12 37.5843 22.04 37.4109 21.88C37.2509 21.72 37.1176 21.5333 37.0109 21.32C36.9176 21.0933 36.8509 20.8733 36.8109 20.66C36.7709 20.4333 36.7509 20.26 36.7509 20.14C36.7509 19.5533 36.8776 19.06 37.1309 18.66C37.3976 18.26 37.7376 17.94 38.1509 17.7C38.5776 17.4467 39.0376 17.26 39.5309 17.14C40.0376 17.0067 40.5376 16.92 41.0309 16.88C41.5376 16.8267 41.9843 16.8067 42.3709 16.82C42.3709 16.82 42.3843 16.6933 42.4109 16.44C42.4509 16.1867 42.4776 15.9667 42.4909 15.78C42.5043 15.54 42.4976 15.2733 42.4709 14.98C42.4443 14.6867 42.3643 14.4333 42.2309 14.22C42.2043 14.18 42.1576 14.1133 42.0909 14.02C42.0243 13.9133 42.0376 13.84 42.1309 13.8C42.1443 13.7867 42.1709 13.78 42.2109 13.78C42.2909 13.78 42.3776 13.8533 42.4709 14C42.5776 14.1467 42.6443 14.3333 42.6709 14.56C42.7109 14.7867 42.7309 15.0267 42.7309 15.28C42.7309 15.3733 42.7309 15.46 42.7309 15.54C42.7309 15.62 42.7243 15.7067 42.7109 15.8C42.6976 16.0133 42.6709 16.24 42.6309 16.48C42.6043 16.7067 42.5909 16.82 42.5909 16.82C42.6176 16.8333 42.6509 16.84 42.6909 16.84C42.8509 16.84 42.9376 16.7733 42.9509 16.64C42.9776 16.4533 43.0043 16.2 43.0309 15.88C43.0709 15.5467 43.0909 15.2067 43.0909 14.86C43.0909 14.3667 43.0243 13.9267 42.8909 13.54C42.7709 13.14 42.5109 12.94 42.1109 12.94C41.8576 12.94 41.6176 13 41.3909 13.12C41.1643 13.2267 40.9709 13.3533 40.8109 13.5C40.5709 13.7267 40.3976 13.9933 40.2909 14.3C40.1976 14.5933 40.1176 14.8733 40.0509 15.14C39.9976 15.4067 39.8976 15.6067 39.7509 15.74C39.5776 15.9133 39.4176 16.0267 39.2709 16.08C39.1376 16.1333 38.9643 16.2267 38.7509 16.36C38.6843 16.4 38.5843 16.4533 38.4509 16.52C38.3309 16.5733 38.2176 16.6 38.1109 16.6C38.0176 16.6 37.9376 16.56 37.8709 16.48C37.8043 16.4 37.7843 16.2533 37.8109 16.04C37.8509 15.7467 37.8909 15.4333 37.9309 15.1C37.9709 14.7533 38.0176 14.5333 38.0709 14.44C38.2443 14.16 38.4909 13.9133 38.8109 13.7C39.1443 13.4867 39.5109 13.3067 39.9109 13.16C40.3109 13 40.7043 12.88 41.0909 12.8C41.4776 12.72 41.8176 12.6733 42.1109 12.66C42.6843 12.62 43.2176 12.68 43.7109 12.84C44.2176 13 44.6243 13.2467 44.9309 13.58C45.2376 13.9133 45.3909 14.3333 45.3909 14.84C45.3909 15.0133 45.3709 15.2 45.3309 15.4C45.1976 15.9733 45.0843 16.5533 44.9909 17.14C44.8976 17.7133 44.8243 18.2933 44.7709 18.88C44.7576 19.0133 44.7309 19.2133 44.6909 19.48C44.6643 19.7467 44.6509 20.02 44.6509 20.3C44.6509 20.6067 44.6909 20.8867 44.7709 21.14C44.8509 21.3933 45.0043 21.54 45.2309 21.58C45.3776 21.6067 45.5643 21.6267 45.7909 21.64C46.0176 21.6533 46.2309 21.66 46.4309 21.66C46.6443 21.66 46.8043 21.66 46.9109 21.66H46.9309C46.9976 21.66 47.0309 21.6867 47.0309 21.74C47.0309 21.7933 46.9976 21.8533 46.9309 21.92C46.8643 21.9733 46.7909 22 46.7109 22C46.2443 22 45.7776 21.9933 45.3109 21.98C44.8443 21.9667 44.3776 21.96 43.9109 21.96C43.6843 21.96 43.4509 21.9667 43.2109 21.98C42.9843 21.9933 42.7509 22 42.5109 22H42.3109C42.1509 22 42.0709 21.96 42.0709 21.88C42.0709 21.84 42.0776 21.7867 42.0909 21.72C42.1176 21.64 42.1443 21.5467 42.1709 21.44C42.2509 21.1467 42.3309 20.7867 42.4109 20.36C42.4909 19.9333 42.5643 19.5067 42.6309 19.08C42.7109 18.64 42.7709 18.26 42.8109 17.94C42.8509 17.6067 42.8709 17.3933 42.8709 17.3V17.26C42.8709 17.1667 42.8376 17.1067 42.7709 17.08C42.7043 17.0533 42.6376 17.0333 42.5709 17.02C42.5043 17.5933 42.3843 18.18 42.2109 18.78C42.0509 19.3667 41.8509 19.9133 41.6109 20.42C41.3843 20.9267 41.1443 21.34 40.8909 21.66C40.6376 21.9667 40.3909 22.12 40.1509 22.12H38.0509ZM40.1909 20.86C40.5909 20.86 40.9243 20.7067 41.1909 20.4C41.4043 20.16 41.5843 19.8667 41.7309 19.52C41.8776 19.16 41.9909 18.8 42.0709 18.44C42.1643 18.08 42.2309 17.7667 42.2709 17.5C42.3243 17.2333 42.3576 17.0667 42.3709 17C42.2909 16.9867 42.2109 16.98 42.1309 16.98C42.0643 16.98 41.9976 16.98 41.9309 16.98C41.5843 16.98 41.2576 17.0333 40.9509 17.14C40.6576 17.2333 40.3976 17.36 40.1709 17.52C39.8776 17.7333 39.6243 18.0333 39.4109 18.42C39.1976 18.7933 39.0909 19.18 39.0909 19.58C39.0909 19.82 39.1376 20.04 39.2309 20.24C39.3243 20.4533 39.4576 20.6133 39.6309 20.72C39.8043 20.8133 39.9909 20.86 40.1909 20.86ZM45.9169 22C45.8902 22 45.8769 21.98 45.8769 21.94C45.8769 21.8867 45.9035 21.82 45.9569 21.74C46.0102 21.66 46.0635 21.62 46.1169 21.62C46.2635 21.62 46.4035 21.6267 46.5369 21.64C46.6835 21.64 46.8035 21.64 46.8969 21.64C47.2035 21.64 47.4769 21.5867 47.7169 21.48C47.9702 21.3733 48.1502 21.1533 48.2569 20.82C48.4435 20.2733 48.5969 19.64 48.7169 18.92C48.8369 18.1867 48.9302 17.44 48.9969 16.68C49.0769 15.92 49.1369 15.22 49.1769 14.58C49.2035 14.0867 49.1035 13.7467 48.8769 13.56C48.6635 13.36 48.3635 13.2467 47.9769 13.22C47.5902 13.1933 47.1702 13.18 46.7169 13.18C46.5435 13.18 46.4569 13.1467 46.4569 13.08C46.4569 13.0133 46.4902 12.96 46.5569 12.92C46.6369 12.8667 46.7102 12.84 46.7769 12.84L48.0369 12.86C48.4902 12.8733 48.9435 12.8867 49.3969 12.9C49.8502 12.9 50.2635 12.9 50.6369 12.9C50.8102 12.9 50.9702 12.9 51.1169 12.9C51.2635 12.8867 51.3902 12.88 51.4969 12.88H51.5169C51.6502 12.88 51.7169 12.94 51.7169 13.06C51.7169 13.1 51.7102 13.1467 51.6969 13.2C51.6835 13.24 51.6702 13.2867 51.6569 13.34C51.5902 13.62 51.4835 14.0733 51.3369 14.7C51.2035 15.3133 51.0635 16.0133 50.9169 16.8C50.7702 17.5733 50.6435 18.3533 50.5369 19.14C50.4435 19.9133 50.3969 20.6067 50.3969 21.22V21.28C50.3969 21.4133 50.4169 21.5 50.4569 21.54C50.5102 21.58 50.5502 21.5933 50.5769 21.58C50.6569 21.58 50.7102 21.52 50.7369 21.4C50.7635 21.28 50.7835 21.1667 50.7969 21.06C50.8635 20.5533 50.9435 19.9467 51.0369 19.24C51.1435 18.52 51.2769 17.7867 51.4369 17.04C51.6102 16.28 51.8435 15.58 52.1369 14.94C52.4302 14.2867 52.8102 13.76 53.2769 13.36C53.7435 12.9467 54.3235 12.74 55.0169 12.74C56.0169 12.74 56.5169 13.2267 56.5169 14.2C56.5169 14.2667 56.5102 14.34 56.4969 14.42C56.4969 14.5 56.4902 14.5867 56.4769 14.68C56.3435 15.64 56.1835 16.6533 55.9969 17.72C55.8235 18.7733 55.7302 19.7667 55.7169 20.7C55.7169 20.98 55.7902 21.1867 55.9369 21.32C56.0969 21.4533 56.2435 21.5333 56.3769 21.56C56.6035 21.6 56.8969 21.6267 57.2569 21.64C57.6169 21.6533 57.8769 21.66 58.0369 21.66H58.0569C58.1235 21.66 58.1569 21.6867 58.1569 21.74C58.1569 21.7933 58.1235 21.8533 58.0569 21.92C58.0035 21.9733 57.9369 22 57.8569 22H53.4169C53.2835 22 53.2169 21.9533 53.2169 21.86C53.2169 21.7267 53.2702 21.4667 53.3769 21.08C53.4969 20.6933 53.6435 20.06 53.8169 19.18C53.8702 18.9533 53.9235 18.6533 53.9769 18.28C54.0302 17.9067 54.0769 17.5067 54.1169 17.08C54.1702 16.6533 54.1969 16.2533 54.1969 15.88C54.1969 15.68 54.1902 15.5 54.1769 15.34C54.1635 15.1667 54.1369 15.02 54.0969 14.9C54.0435 14.7133 53.9569 14.58 53.8369 14.5C53.7302 14.42 53.6169 14.38 53.4969 14.38C53.3502 14.38 53.1969 14.4267 53.0369 14.52C52.8769 14.6133 52.7369 14.7333 52.6169 14.88C52.3235 15.2267 52.0835 15.7 51.8969 16.3C51.7102 16.8867 51.5569 17.5067 51.4369 18.16C51.3302 18.8133 51.2435 19.42 51.1769 19.98C51.1102 20.5267 51.0569 20.9333 51.0169 21.2C51.0035 21.24 50.9969 21.28 50.9969 21.32C50.9969 21.3467 50.9969 21.3733 50.9969 21.4C50.9969 21.5867 51.0835 21.68 51.2569 21.68C51.3502 21.68 51.4569 21.6733 51.5769 21.66C51.7102 21.6333 51.8502 21.62 51.9969 21.62H52.0369C52.1035 21.62 52.1369 21.6533 52.1369 21.72C52.1369 21.7733 52.1169 21.8267 52.0769 21.88C52.0369 21.9333 51.9835 21.96 51.9169 21.96C51.7035 21.96 51.5635 21.9533 51.4969 21.94C51.4435 21.9133 51.3035 21.9 51.0769 21.9C50.6502 21.9 50.2369 21.9 49.8369 21.9C49.4369 21.9 49.0302 21.9133 48.6169 21.94C48.4035 21.94 48.1235 21.9467 47.7769 21.96C47.4435 21.9733 47.1035 21.9867 46.7569 22C46.4235 22 46.1435 22 45.9169 22ZM78.1657 21.428C78.0484 21.428 77.887 21.362 77.6817 21.23C77.4764 21.0833 77.2857 20.922 77.1097 20.746C76.9484 20.57 76.8677 20.4233 76.8677 20.306C76.8677 20.2767 76.9777 20.2107 77.1977 20.108C77.4177 19.9907 77.667 19.8733 77.9457 19.756C78.239 19.624 78.4957 19.514 78.7157 19.426C78.9357 19.3233 79.053 19.2647 79.0677 19.25V19.294C79.0677 19.382 79.0237 19.4993 78.9357 19.646C78.8477 19.7927 78.767 19.8953 78.6937 19.954L78.7597 20.174L78.7157 20.482C78.6424 20.57 78.5837 20.6947 78.5397 20.856C78.5104 21.0027 78.4664 21.1347 78.4077 21.252C78.3637 21.3693 78.283 21.428 78.1657 21.428Z" fill="#414A4C"/>
<path d="M58.8774 28.798L58.5474 28.6L58.4154 28.534L58.2614 28.468C58.2027 28.4387 58.166 28.4167 58.1514 28.402C58.1367 28.3873 58.1 28.3653 58.0414 28.336C57.66 27.984 57.4694 27.566 57.4694 27.082C57.4694 26.774 57.5354 26.488 57.6674 26.224C57.6967 26.2387 57.748 26.2313 57.8214 26.202C57.8947 26.1873 57.946 26.1727 57.9754 26.158V26.07C57.9314 25.9527 57.9094 25.8427 57.9094 25.74C57.9094 25.4613 57.9974 25.1167 58.1734 24.706C58.3494 24.2953 58.562 23.8627 58.8114 23.408C59.0754 22.968 59.332 22.5647 59.5814 22.198C59.7427 21.9487 59.9407 21.6553 60.1754 21.318C60.41 20.9807 60.6447 20.6433 60.8794 20.306C61.1287 19.954 61.3487 19.6387 61.5394 19.36C61.7447 19.0813 61.8914 18.876 61.9794 18.744C62.0527 18.6267 62.1334 18.502 62.2214 18.37C62.3094 18.238 62.39 18.106 62.4634 17.974C62.5367 17.8567 62.61 17.732 62.6834 17.6C62.7714 17.468 62.8594 17.3433 62.9474 17.226C62.962 17.1967 63.0794 17.0647 63.2994 16.83C63.5194 16.5953 63.7687 16.324 64.0474 16.016C64.3407 15.6933 64.5974 15.4147 64.8174 15.18C65.0374 14.9307 65.1547 14.7913 65.1694 14.762L65.0374 14.674L65.1254 14.608C65.14 14.5933 65.1694 14.586 65.2134 14.586C65.2427 14.586 65.2574 14.6153 65.2574 14.674H65.3234C65.3527 14.6447 65.3674 14.6007 65.3674 14.542C65.3527 14.5127 65.3454 14.476 65.3454 14.432C65.3454 14.3293 65.3674 14.278 65.4114 14.278C65.5287 14.19 65.6827 14.058 65.8734 13.882C66.0787 13.706 66.24 13.618 66.3574 13.618L66.3794 13.464C66.3647 13.4493 66.3134 13.442 66.2254 13.442C66.1227 13.4713 66.086 13.442 66.1154 13.354L66.2694 13.376C66.3427 13.3027 66.4234 13.2367 66.5114 13.178C66.5994 13.1047 66.702 13.0753 66.8194 13.09C66.834 13.046 66.8414 12.936 66.8414 12.76C66.8414 12.5987 66.878 12.518 66.9514 12.518L66.9294 12.606H67.0614C67.0907 12.6207 67.1274 12.628 67.1714 12.628C67.2594 12.628 67.3034 12.5987 67.3034 12.54H67.3694C67.3694 12.5253 67.3767 12.5107 67.3914 12.496V12.452C67.3914 12.364 67.3694 12.3127 67.3254 12.298C67.2814 12.2687 67.2594 12.232 67.2594 12.188V12.144C67.3474 12.0707 67.5014 11.9313 67.7214 11.726C67.956 11.5207 68.176 11.3153 68.3814 11.11C68.6014 10.89 68.7187 10.7287 68.7334 10.626C68.924 10.5087 69.1074 10.3913 69.2834 10.274C69.474 10.142 69.6574 10.01 69.8334 9.878L69.8554 9.724H69.7894C69.7454 9.724 69.716 9.73133 69.7014 9.746C69.6867 9.76067 69.6574 9.768 69.6134 9.768C69.5987 9.768 69.5914 9.76067 69.5914 9.746V9.702C69.6207 9.658 69.716 9.592 69.8774 9.504C70.0387 9.416 70.1414 9.372 70.1854 9.372C70.2 9.372 70.2074 9.38667 70.2074 9.416L70.2954 9.35H70.3834C70.53 9.174 70.64 9.00533 70.7134 8.844C70.728 8.81467 70.7427 8.78533 70.7574 8.756C70.772 8.72667 70.7867 8.69733 70.8014 8.668V8.602L70.8234 8.58L71.2634 8.272V8.184H71.1974C71.1387 8.21333 71.0507 8.25733 70.9334 8.316C70.8307 8.36 70.7427 8.382 70.6694 8.382C70.6107 8.382 70.5887 8.36 70.6034 8.316C69.914 8.87333 69.1954 9.46733 68.4474 10.098C67.6994 10.714 67.076 11.3813 66.5774 12.1C66.5627 12.1587 66.5187 12.188 66.4454 12.188C66.4014 12.188 66.3794 12.1733 66.3794 12.144C66.3794 12.1147 66.3867 12.0927 66.4014 12.078L66.4454 12.012C66.9294 11.2787 67.4867 10.6187 68.1174 10.032C68.7627 9.43067 69.4154 8.844 70.0754 8.272H70.0094C69.9654 8.272 69.9434 8.25733 69.9434 8.228L70.0974 8.118L70.6034 7.81C70.6327 7.78067 70.662 7.75133 70.6914 7.722C70.7354 7.678 70.7867 7.62667 70.8454 7.568C70.948 7.46533 71.036 7.414 71.1094 7.414C71.3147 7.25267 71.52 7.084 71.7254 6.908C71.9454 6.71733 72.158 6.52667 72.3634 6.336C72.5687 6.14533 72.774 5.96933 72.9794 5.808C73.1994 5.632 73.4194 5.46333 73.6394 5.302C73.7127 5.258 73.8007 5.236 73.9034 5.236C74.0354 5.236 74.1307 5.24333 74.1894 5.258C74.2334 5.27267 74.2774 5.28 74.3214 5.28C74.3654 5.28 74.4094 5.28 74.4534 5.28C74.5854 5.28 74.6807 5.25067 74.7394 5.192C75.0034 5.35333 75.1354 5.55867 75.1354 5.808C75.1354 6.05733 75.0327 6.336 74.8274 6.644C74.622 6.93733 74.3654 7.23067 74.0574 7.524C73.7494 7.81733 73.4487 8.08867 73.1554 8.338C72.8767 8.58733 72.5614 8.866 72.2094 9.174C71.8574 9.482 71.5347 9.79 71.2414 10.098C70.9627 10.3913 70.772 10.6553 70.6694 10.89L70.6254 10.956C70.6254 10.9707 70.6327 10.978 70.6474 10.978L70.4934 11.044C70.4787 11.0733 70.4494 11.11 70.4054 11.154C70.3467 11.2127 70.31 11.2567 70.2954 11.286L70.2074 11.22C70.178 11.2053 70.1414 11.198 70.0974 11.198C70.0387 11.198 70.0094 11.22 70.0094 11.264L69.4374 11.88H69.5254L69.5034 11.946L69.5694 11.968C69.584 11.88 69.628 11.7993 69.7014 11.726H69.8334L69.7894 11.88L69.8774 11.902L69.8334 12.056C69.804 12.0413 69.7234 12.056 69.5914 12.1C69.474 12.144 69.4007 12.1733 69.3714 12.188L69.3934 12.122C69.3494 12.1513 69.254 12.2173 69.1074 12.32C68.9607 12.4227 68.8874 12.496 68.8874 12.54L68.9314 12.562L69.2614 12.43C69.1734 12.4887 69.1147 12.5327 69.0854 12.562C69.012 12.6353 68.9534 12.6867 68.9094 12.716L68.9974 12.892L68.9754 12.98C68.9314 12.98 68.88 12.9873 68.8214 13.002C68.7627 13.002 68.6967 13.0093 68.6234 13.024L68.6894 12.892C68.6747 12.8773 68.6454 12.87 68.6014 12.87H68.5134C68.484 12.9287 68.4694 12.98 68.4694 13.024C68.4694 13.0973 68.462 13.1487 68.4474 13.178C68.3447 13.09 68.2494 13.0387 68.1614 13.024L68.1174 13.068H68.0294C68.044 13.112 68.0514 13.1927 68.0514 13.31L67.7654 13.376L67.7434 13.464C67.7727 13.4787 67.8094 13.486 67.8534 13.486C67.8974 13.486 67.9414 13.4933 67.9854 13.508L68.2054 13.574L68.2714 13.64L68.2494 13.728L67.7214 13.53L67.6114 13.684H67.5454L67.5234 13.772L67.9414 13.794L67.9194 13.882L67.8534 13.86L67.8314 13.948L67.6334 13.882C67.5894 13.882 67.5234 13.8673 67.4354 13.838L67.3914 13.97L67.4794 14.014L67.6554 14.168L66.9954 14.872C66.9807 14.8573 66.9587 14.8207 66.9294 14.762L66.8414 14.696L66.7974 14.762H66.7094C66.6654 14.762 66.6434 14.7913 66.6434 14.85C66.5847 14.9233 66.5334 14.9893 66.4894 15.048C66.4454 15.1067 66.4014 15.1727 66.3574 15.246C66.3134 15.2607 66.2694 15.2827 66.2254 15.312C66.1814 15.3267 66.1447 15.3487 66.1154 15.378L65.8514 15.51H65.7854C65.8 15.5393 65.8147 15.576 65.8294 15.62C65.844 15.6493 65.8514 15.6787 65.8514 15.708C65.8514 15.7373 65.8294 15.752 65.7854 15.752C65.712 15.8547 65.6314 15.95 65.5434 16.038C65.4554 16.126 65.3747 16.2067 65.3014 16.28C65.1547 16.456 65.0447 16.6687 64.9714 16.918C64.8834 16.9767 64.8247 17.028 64.7954 17.072C64.7514 17.1307 64.6927 17.1747 64.6194 17.204L63.8714 17.644L63.8494 17.732C63.8787 17.7467 63.908 17.754 63.9374 17.754C63.9667 17.754 64.0107 17.7613 64.0694 17.776C64.1574 17.8053 64.194 17.8493 64.1794 17.908C64.0327 17.9667 63.864 18.0693 63.6734 18.216C63.4974 18.3627 63.3947 18.5167 63.3654 18.678C63.2774 18.7807 63.1674 18.898 63.0354 19.03C62.9034 19.1473 62.7567 19.1987 62.5954 19.184C62.654 19.2133 62.698 19.228 62.7274 19.228L62.8594 19.294L62.8374 19.448C62.808 19.4627 62.7567 19.4847 62.6834 19.514C62.6247 19.5287 62.5587 19.5507 62.4854 19.58C62.2947 19.6533 62.192 19.7267 62.1774 19.8H62.1114C62.17 19.8293 62.214 19.866 62.2434 19.91C62.2727 19.954 62.302 20.0053 62.3314 20.064L62.3094 20.13C62.0894 20.2033 61.8474 20.394 61.5834 20.702C61.334 21.01 61.114 21.3473 60.9234 21.714C60.7327 22.066 60.608 22.3667 60.5494 22.616C60.3294 22.704 60.146 22.858 59.9994 23.078C59.8674 23.3127 59.772 23.54 59.7134 23.76C59.4787 24.0973 59.2954 24.4713 59.1634 24.882C59.1047 25.0727 59.0387 25.2633 58.9654 25.454C58.892 25.6593 58.8187 25.8647 58.7454 26.07C58.7014 26.246 58.65 26.3853 58.5914 26.488C58.562 26.5467 58.5327 26.6127 58.5034 26.686C58.474 26.7593 58.4447 26.8327 58.4154 26.906C58.386 26.95 58.364 27.0087 58.3494 27.082C58.3494 27.17 58.3494 27.236 58.3494 27.28C58.3494 27.3533 58.364 27.39 58.3934 27.39C58.4227 27.5513 58.4374 27.698 58.4374 27.83C58.4374 27.9767 58.5327 28.05 58.7234 28.05C58.7967 28.05 58.8994 28.0207 59.0314 27.962C59.1047 27.9327 59.1707 27.9107 59.2294 27.896C59.288 27.8813 59.332 27.8667 59.3614 27.852C59.3907 27.8667 59.4274 27.8813 59.4714 27.896C59.5154 27.9107 59.5667 27.9253 59.6254 27.94C59.6107 27.896 59.596 27.852 59.5814 27.808C59.5667 27.764 59.552 27.7273 59.5374 27.698L59.7574 27.72C59.9187 27.6173 60.0727 27.522 60.2194 27.434C60.366 27.3607 60.5127 27.2873 60.6594 27.214H60.7474L60.7694 27.236C60.7694 27.2507 60.7767 27.2653 60.7914 27.28C60.7767 27.2947 60.7694 27.3093 60.7694 27.324C60.7694 27.3387 60.762 27.3533 60.7474 27.368C60.6447 27.4267 60.5054 27.478 60.3294 27.522C60.1534 27.5807 60.0507 27.654 60.0214 27.742C60.0507 27.7273 60.08 27.7127 60.1094 27.698C60.1534 27.6833 60.19 27.676 60.2194 27.676C60.278 27.676 60.2854 27.698 60.2414 27.742H60.3074L60.2634 27.984C60.1314 28.0573 59.9847 28.1453 59.8234 28.248C59.662 28.3653 59.5667 28.5047 59.5374 28.666L58.8774 28.798ZM60.4394 20.438L60.4174 20.394H60.3734V20.328H60.4834C60.4834 20.284 60.5127 20.1373 60.5714 19.888C60.63 19.6387 60.696 19.36 60.7694 19.052C60.8574 18.7293 60.938 18.4507 61.0114 18.216C61.0847 17.9667 61.1434 17.8347 61.1874 17.82L61.2094 17.6L60.9674 17.776V17.71L61.2094 17.468V17.402L61.1434 17.424L61.0334 16.654C60.9894 16.3607 60.9674 16.126 60.9674 15.95C60.9674 15.466 61.0334 14.9967 61.1654 14.542C61.2974 14.0727 61.3634 13.6107 61.3634 13.156C61.3634 13.1267 61.3487 13.09 61.3194 13.046C61.3047 13.002 61.29 12.9653 61.2754 12.936L61.4514 12.76L61.3854 12.694C61.2534 12.2247 61.1947 11.726 61.2094 11.198C61.224 10.6553 61.1507 10.1347 60.9894 9.636C60.8427 9.46 60.7254 9.21067 60.6374 8.888C60.5494 8.55067 60.454 8.25 60.3514 7.986C60.2634 7.70733 60.1167 7.568 59.9114 7.568C59.8674 7.568 59.838 7.57533 59.8234 7.59C59.8087 7.60467 59.7794 7.612 59.7354 7.612C59.706 7.612 59.6914 7.59 59.6914 7.546C59.4274 7.634 59.2 7.82467 59.0094 8.118C58.8334 8.41133 58.7014 8.734 58.6134 9.086C58.5254 9.42333 58.4814 9.73867 58.4814 10.032C58.4814 11.132 58.6427 12.1953 58.9654 13.222C59.0387 13.2367 59.0827 13.2953 59.0974 13.398C59.112 13.486 59.1047 13.552 59.0754 13.596C59.0754 13.6253 59.0827 13.6547 59.0974 13.684C59.112 13.6987 59.1194 13.7207 59.1194 13.75C59.1194 13.7793 59.1267 13.8087 59.1414 13.838L59.1854 14.058C59.1854 14.0873 59.1707 14.102 59.1414 14.102C59.1707 14.2047 59.2074 14.3293 59.2514 14.476C59.31 14.608 59.376 14.7107 59.4494 14.784C59.4934 14.828 59.5154 14.8573 59.5154 14.872C59.5154 14.8867 59.5007 14.894 59.4714 14.894C59.31 14.894 59.1634 14.762 59.0314 14.498C58.914 14.234 58.8407 14.0287 58.8114 13.882C58.738 13.8087 58.7087 13.75 58.7234 13.706V13.508C58.65 13.508 58.5767 13.486 58.5034 13.442L58.4814 13.222L58.4594 13.266C58.4594 13.222 58.43 13.156 58.3714 13.068C58.3274 12.9653 58.2907 12.892 58.2614 12.848C58.2174 12.8187 58.1587 12.782 58.0854 12.738C58.0267 12.6793 57.9974 12.6207 57.9974 12.562C57.9974 12.5327 58.012 12.4813 58.0414 12.408C58.0854 12.3347 58.122 12.276 58.1514 12.232C58.1074 12.2173 58.0634 12.1367 58.0194 11.99C57.99 11.8433 57.9754 11.748 57.9754 11.704C57.9754 11.5867 57.9974 11.4767 58.0414 11.374C58.056 11.3153 58.0634 11.264 58.0634 11.22C58.078 11.1613 58.0854 11.1027 58.0854 11.044C58.0854 10.9413 58.056 10.8607 57.9974 10.802C57.924 10.7287 57.8874 10.6627 57.8874 10.604C57.8874 10.5453 57.9094 10.5087 57.9534 10.494C57.9974 10.4647 58.0194 10.4427 58.0194 10.428C58.0194 10.3987 57.9974 10.3767 57.9534 10.362C57.9094 10.3327 57.8874 10.3033 57.8874 10.274C57.8874 10.2153 57.9094 10.1347 57.9534 10.032C58.012 9.91467 58.0487 9.834 58.0634 9.79C58.0047 9.746 57.9754 9.68 57.9754 9.592C57.9754 9.46 58.0414 9.25467 58.1734 8.976C58.32 8.69733 58.4667 8.41867 58.6134 8.14C58.76 7.86133 58.8334 7.678 58.8334 7.59L58.8774 7.502L59.0094 7.634L59.0534 7.612C59.0534 7.58267 59.0607 7.56067 59.0754 7.546V7.524C59.0754 7.49467 59.0534 7.48 59.0094 7.48C59.2294 7.27467 59.4127 7.128 59.5594 7.04C59.7207 6.93733 59.8894 6.864 60.0654 6.82C60.256 6.776 60.5054 6.71733 60.8134 6.644C60.872 6.54133 60.9674 6.49 61.0994 6.49C61.202 6.49 61.3487 6.622 61.5394 6.886C61.73 7.13533 61.9207 7.436 62.1114 7.788C62.302 8.14 62.4414 8.47 62.5294 8.778C62.632 9.07133 62.6467 9.25467 62.5734 9.328C62.5734 9.57733 62.5954 9.834 62.6394 10.098C62.6834 10.3473 62.7274 10.5967 62.7714 10.846C62.786 10.9047 62.7934 10.956 62.7934 11C62.808 11.044 62.8154 11.0953 62.8154 11.154C62.8007 11.2127 62.7934 11.2713 62.7934 11.33C62.808 11.374 62.8227 11.4253 62.8374 11.484C62.852 11.5427 62.8667 11.594 62.8814 11.638C62.896 11.682 62.9107 11.726 62.9254 11.77L62.9914 12.078L62.9254 12.144H62.9914L62.7934 12.76C62.808 12.804 62.8154 12.87 62.8154 12.958C62.8154 13.046 62.8227 13.112 62.8374 13.156L62.7714 13.178C62.7714 13.2073 62.7714 13.2733 62.7714 13.376C62.786 13.464 62.8227 13.5007 62.8814 13.486C62.852 13.6767 62.8154 13.8673 62.7714 14.058C62.7274 14.234 62.6907 14.41 62.6614 14.586C62.6174 14.7767 62.5734 14.9673 62.5294 15.158C62.5 15.334 62.4707 15.5173 62.4414 15.708L62.3534 16.258C62.3387 16.2433 62.302 16.2213 62.2434 16.192C62.1994 16.192 62.1627 16.1773 62.1334 16.148V16.214H62.0674C62.0527 16.5367 61.9794 16.8447 61.8474 17.138C61.7154 17.4313 61.5834 17.7247 61.4514 18.018C61.3194 18.3113 61.2387 18.6193 61.2094 18.942C61.18 18.9713 61.1434 18.986 61.0994 18.986C61.0407 19.0153 61.004 19.0373 60.9894 19.052C60.9894 19.0813 60.9527 19.2133 60.8794 19.448C60.8207 19.6827 60.7474 19.91 60.6594 20.13C60.586 20.3353 60.5127 20.438 60.4394 20.438ZM58.4154 12.716C58.4447 12.628 58.4594 12.584 58.4594 12.584L58.3494 12.342C58.32 12.2833 58.3054 12.188 58.3054 12.056C58.2907 11.9093 58.2467 11.836 58.1734 11.836C58.144 11.836 58.1294 11.8653 58.1294 11.924C58.1294 11.9533 58.144 12.034 58.1734 12.166C58.2027 12.298 58.2394 12.4227 58.2834 12.54C58.3274 12.6573 58.3714 12.716 58.4154 12.716ZM69.5034 12.122C69.5327 12.0927 69.5474 12.0633 69.5474 12.034L69.4154 12.1H69.4594C69.474 12.1147 69.4887 12.122 69.5034 12.122ZM60.8574 27.104C60.8134 27.104 60.7914 27.0893 60.7914 27.06V27.038H60.8574C60.872 27.0233 60.8794 26.994 60.8794 26.95C60.894 26.9353 60.9234 26.928 60.9674 26.928L61.0334 26.884C61.0334 26.9133 61.026 26.9353 61.0114 26.95C61.026 26.9647 61.0554 26.972 61.0994 26.972C61.0994 26.928 61.1067 26.8987 61.1214 26.884V26.796L61.0994 26.774C61.0994 26.7593 61.092 26.7447 61.0774 26.73C61.136 26.73 61.2167 26.6787 61.3194 26.576C61.4367 26.4587 61.51 26.4 61.5394 26.4C61.5247 26.4587 61.4734 26.554 61.3854 26.686C61.312 26.8327 61.246 26.8987 61.1874 26.884C61.1727 26.8987 61.1654 26.928 61.1654 26.972C61.1654 27.016 61.158 27.0453 61.1434 27.06C61.0847 27.06 61.0407 27.0673 61.0114 27.082C60.982 27.0967 60.9307 27.104 60.8574 27.104ZM75.4147 22.506C75.1947 22.506 75.004 22.4547 74.8427 22.352C74.696 22.2493 74.542 22.1173 74.3807 21.956L74.4247 21.912C74.4247 21.8973 74.41 21.8753 74.3807 21.846C74.278 21.714 74.2047 21.6113 74.1607 21.538C74.1313 21.4647 74.102 21.3913 74.0727 21.318C74.058 21.2447 74.0433 21.1713 74.0287 21.098C74.014 21.0247 73.9847 20.922 73.9407 20.79C73.926 20.7313 73.926 20.6947 73.9407 20.68V20.24C73.9407 20.1667 73.9407 20.1007 73.9407 20.042C73.9407 19.9687 73.9333 19.8953 73.9187 19.822C73.904 19.7633 73.8893 19.712 73.8747 19.668C73.8747 19.6093 73.8747 19.5653 73.8747 19.536C73.8747 19.5213 73.8893 19.47 73.9187 19.382C73.9187 19.338 73.926 19.3087 73.9407 19.294C73.9113 19.2647 73.8967 19.2427 73.8967 19.228C73.8967 19.2133 73.904 19.1987 73.9187 19.184L73.9407 19.162C73.9407 19.162 73.948 19.1547 73.9627 19.14C73.9627 19.1253 73.97 19.1107 73.9847 19.096C73.97 19.096 73.9627 19.0887 73.9627 19.074C73.9627 19.0447 73.97 19.03 73.9847 19.03C73.9553 18.8833 73.9627 18.7733 74.0067 18.7C74.0507 18.612 74.0507 18.4873 74.0067 18.326H74.1167V18.172L74.1387 18.15L74.0287 17.996L74.1827 17.974V17.952C74.1827 17.9373 74.19 17.9227 74.2047 17.908C74.366 17.5267 74.498 17.1527 74.6007 16.786L74.4687 16.808V16.654H74.5127C74.586 16.5367 74.652 16.4047 74.7107 16.258C74.74 16.1847 74.7693 16.126 74.7987 16.082C74.828 16.038 74.85 15.9867 74.8647 15.928L74.8427 15.95C74.74 16.0527 74.6813 16.1627 74.6667 16.28C74.652 16.3533 74.6227 16.4193 74.5787 16.478C74.5493 16.5367 74.5053 16.5953 74.4467 16.654C74.388 16.7127 74.3367 16.7493 74.2927 16.764C74.234 16.808 74.19 16.8667 74.1607 16.94C74.0287 17.2333 73.8673 17.512 73.6767 17.776C73.5007 18.04 73.3247 18.2967 73.1487 18.546C73.1193 18.59 73.0753 18.6413 73.0167 18.7C72.958 18.7587 72.914 18.8247 72.8847 18.898C72.8407 18.9713 72.804 19.0447 72.7747 19.118L72.6427 19.338C72.6133 19.3967 72.5767 19.448 72.5327 19.492C72.4887 19.536 72.4373 19.5873 72.3787 19.646L72.0707 19.932C71.704 20.3573 71.3227 20.7827 70.9267 21.208C70.5453 21.6187 70.098 21.9487 69.5847 22.198C69.5407 22.2127 69.504 22.22 69.4747 22.22C69.4453 22.2347 69.416 22.242 69.3867 22.242C69.2107 22.242 69.064 22.1613 68.9467 22C68.844 21.8387 68.7927 21.6773 68.7927 21.516C68.7927 21.4427 68.8073 21.362 68.8367 21.274L68.9247 21.054C68.954 20.966 68.9687 20.8853 68.9687 20.812C68.9687 20.7387 68.9833 20.658 69.0127 20.57C69.0567 20.4087 69.108 20.262 69.1667 20.13C69.2253 19.9833 69.2913 19.8293 69.3647 19.668C69.3647 19.668 69.3793 19.602 69.4087 19.47C69.4087 19.3673 69.416 19.3013 69.4307 19.272C69.3573 19.2427 69.3207 19.2207 69.3207 19.206C69.3207 19.1913 69.328 19.184 69.3427 19.184V19.162C69.3867 19.074 69.438 18.9713 69.4967 18.854C69.57 18.722 69.6653 18.6487 69.7827 18.634C69.856 18.4727 69.922 18.3187 69.9807 18.172C70.054 18.0253 70.1273 17.8787 70.2007 17.732C70.3473 17.4533 70.4573 17.138 70.5307 16.786L70.5967 16.698H70.5527L70.4867 16.61L70.5747 16.478L70.4427 16.412L70.5747 16.346H70.4867V16.302C70.472 16.2873 70.4647 16.2653 70.4647 16.236C70.4647 16.2067 70.472 16.1847 70.4867 16.17C70.5453 16.0673 70.582 15.9647 70.5967 15.862C70.626 15.7447 70.67 15.6567 70.7287 15.598H70.7067L70.6847 15.62H70.6407C70.5967 15.62 70.5747 15.6053 70.5747 15.576V15.554C70.5747 15.3927 70.6187 15.2387 70.7067 15.092C70.7213 15.0333 70.736 14.982 70.7507 14.938C70.7653 14.894 70.78 14.8427 70.7947 14.784C70.8093 14.74 70.8167 14.696 70.8167 14.652C70.8313 14.608 70.8387 14.564 70.8387 14.52C70.8387 14.4613 70.8313 14.4173 70.8167 14.388C70.7873 14.3293 70.7727 14.278 70.7727 14.234C70.7727 14.1753 70.7947 14.124 70.8387 14.08C70.8973 14.036 70.9487 13.9993 70.9927 13.97V13.948C70.9633 13.9333 70.9047 13.9113 70.8167 13.882C70.7433 13.838 70.6993 13.816 70.6847 13.816L70.7067 13.728C70.6773 13.7573 70.6553 13.772 70.6407 13.772C70.6553 13.772 70.6553 13.7793 70.6407 13.794H70.5967C70.5527 13.7793 70.472 13.7573 70.3547 13.728C70.2227 13.6987 70.1567 13.6547 70.1567 13.596C70.1567 13.5667 70.1933 13.5373 70.2667 13.508C70.34 13.464 70.3913 13.442 70.4207 13.442C70.626 13.486 70.8753 13.5447 71.1687 13.618C71.4767 13.6767 71.7627 13.75 72.0267 13.838C72.3053 13.926 72.496 14.0433 72.5987 14.19C72.628 14.234 72.6427 14.2853 72.6427 14.344C72.6573 14.388 72.6647 14.432 72.6647 14.476C72.6647 14.608 72.628 14.7547 72.5547 14.916C72.496 15.0773 72.4373 15.224 72.3787 15.356C72.3347 15.444 72.3127 15.5027 72.3127 15.532C72.3127 15.532 72.298 15.576 72.2687 15.664C72.1953 15.7373 72.144 15.796 72.1147 15.84C72.056 15.8987 71.99 15.9427 71.9167 15.972L71.9387 16.038L71.9607 16.06C71.99 16.0893 72.0047 16.1113 72.0047 16.126C72.034 16.1847 72.0487 16.2433 72.0487 16.302C72.0487 16.3313 72.0413 16.368 72.0267 16.412C72.012 16.456 71.9753 16.4853 71.9167 16.5L71.8727 16.544H71.8947C71.8653 16.6027 71.8507 16.654 71.8507 16.698V16.764C71.8507 16.7933 71.8433 16.83 71.8287 16.874C71.814 16.918 71.7847 16.9473 71.7407 16.962C71.7113 17.0353 71.66 17.1527 71.5867 17.314C71.528 17.4753 71.4693 17.5853 71.4107 17.644L71.3447 17.776L71.3667 17.842L71.2787 17.908C71.264 18.0107 71.2053 18.1133 71.1027 18.216C71 18.2893 70.9633 18.392 70.9927 18.524H70.9487C70.9633 18.5387 70.9707 18.5533 70.9707 18.568C70.9707 18.5973 70.956 18.612 70.9267 18.612C70.912 18.656 70.8827 18.7073 70.8387 18.766C70.7947 18.81 70.7287 18.8467 70.6407 18.876C70.5967 19.0373 70.5307 19.2573 70.4427 19.536C70.3547 19.8 70.274 20.042 70.2007 20.262C70.1273 20.482 70.0833 20.614 70.0687 20.658C70.0833 20.6727 70.1127 20.68 70.1567 20.68C70.2153 20.68 70.3033 20.6507 70.4207 20.592C70.538 20.5187 70.582 20.4307 70.5527 20.328C70.6113 20.328 70.6627 20.2913 70.7067 20.218C70.7653 20.1593 70.8167 20.1227 70.8607 20.108C71.0367 19.9613 71.2053 19.8147 71.3667 19.668C71.528 19.5067 71.682 19.338 71.8287 19.162C71.9753 18.986 72.122 18.81 72.2687 18.634C72.4153 18.458 72.562 18.2893 72.7087 18.128C72.7233 18.1133 72.8113 18.0033 72.9727 17.798C73.1487 17.5927 73.354 17.3433 73.5887 17.05C73.8233 16.7567 74.058 16.456 74.2927 16.148C74.5273 15.84 74.718 15.576 74.8647 15.356C75.0113 15.136 75.0773 14.9967 75.0627 14.938H75.2387L75.2607 14.96L75.3047 14.916L75.1947 14.938V14.806H75.2387C75.268 14.762 75.2973 14.718 75.3267 14.674C75.356 14.63 75.3853 14.5933 75.4147 14.564C75.4587 14.52 75.4953 14.432 75.5247 14.3C75.5393 14.2413 75.554 14.19 75.5687 14.146C75.5833 14.0873 75.598 14.0287 75.6127 13.97C75.642 13.8673 75.7227 13.8087 75.8547 13.794L75.8767 13.772C76.0087 13.772 76.2067 13.794 76.4707 13.838C76.7347 13.882 76.9693 13.948 77.1747 14.036C77.3947 14.124 77.5047 14.2413 77.5047 14.388C77.5047 14.5053 77.4533 14.652 77.3507 14.828C77.2627 15.004 77.16 15.1727 77.0427 15.334C76.984 15.4073 76.9327 15.488 76.8887 15.576C76.8447 15.664 76.7933 15.7447 76.7347 15.818C76.632 15.9793 76.544 16.148 76.4707 16.324H76.4047V16.368C76.3753 16.3827 76.3313 16.4193 76.2727 16.478C76.2287 16.522 76.192 16.5587 76.1627 16.588H76.2287C76.2287 16.6613 76.2213 16.72 76.2067 16.764L76.1847 16.94L76.0527 17.16H75.9427C75.9427 17.2187 75.906 17.248 75.8327 17.248C75.7887 17.248 75.7667 17.2333 75.7667 17.204C75.752 17.204 75.7447 17.182 75.7447 17.138C75.7447 17.1087 75.7593 17.094 75.7887 17.094L75.8987 16.874L75.8547 16.83C75.8107 16.9327 75.774 17.0207 75.7447 17.094C75.73 17.1673 75.7373 17.2627 75.7667 17.38H75.7447L75.7667 17.402L75.6567 17.446L75.6347 17.6L75.5687 17.798C75.5247 17.9447 75.4587 18.0327 75.3707 18.062L75.4147 18.15L75.3487 18.414L75.2827 18.502H75.3047L75.0187 18.942C75.0333 18.9567 75.0407 18.9933 75.0407 19.052C75.0407 19.1693 75.0113 19.2793 74.9527 19.382C74.894 19.4847 74.85 19.602 74.8207 19.734L74.8427 19.8L74.7987 19.844C74.8133 19.844 74.8207 19.8587 74.8207 19.888L75.0187 19.954C74.9453 19.954 74.894 19.9467 74.8647 19.932V20.086C74.8647 20.1447 74.8647 20.2033 74.8647 20.262C74.8647 20.306 74.8573 20.3573 74.8427 20.416C74.828 20.4747 74.8133 20.526 74.7987 20.57C74.7987 20.614 74.7987 20.6653 74.7987 20.724C74.7987 20.8413 74.8207 20.944 74.8647 21.032C74.894 21.076 74.9087 21.1273 74.9087 21.186C74.9233 21.23 74.938 21.2813 74.9527 21.34C74.9673 21.3693 74.9747 21.4207 74.9747 21.494C74.9747 21.5527 74.9747 21.6187 74.9747 21.692C74.9893 21.8093 75.0847 21.912 75.2607 22C75.4513 22.088 75.6053 22.132 75.7227 22.132C75.8693 22.132 75.9867 22.11 76.0747 22.066C76.1627 22.022 76.2653 21.9633 76.3827 21.89L76.3607 21.912H76.4487V21.934C76.3753 22.0953 76.2213 22.2273 75.9867 22.33C75.752 22.4473 75.5613 22.506 75.4147 22.506ZM70.7067 18.612H70.7287C70.758 18.5533 70.7873 18.5167 70.8167 18.502L70.7947 18.414C70.7653 18.458 70.736 18.524 70.7067 18.612Z" fill="#1C75EB"/>
</svg>
