<svg width="43" height="43" viewBox="0 0 43 43" fill="none" xmlns="http://www.w3.org/2000/svg">
<path fill-rule="evenodd" clip-rule="evenodd" d="M28.347 0.443355C28.4871 0.302818 28.6537 0.191317 28.837 0.115239C29.0203 0.0391606 29.2169 0 29.4154 0C29.6139 0 29.8104 0.0391606 29.9938 0.115239C30.1771 0.191317 30.3437 0.302818 30.4838 0.443355L42.5566 12.5162C42.6972 12.6563 42.8087 12.8229 42.8848 13.0062C42.9608 13.1896 43 13.3861 43 13.5846C43 13.7831 42.9608 13.9797 42.8848 14.163C42.8087 14.3463 42.6972 14.5129 42.5566 14.653L36.816 20.3937L34.3139 30.393C34.1237 31.1544 33.7387 31.8532 33.1969 32.421C32.6551 32.9887 31.975 33.4059 31.2233 33.6315L0 43L9.3685 11.7737C9.59431 11.0229 10.0112 10.3437 10.5784 9.80246C11.1455 9.26122 11.8435 8.87653 12.604 8.68606L22.6033 6.18699L28.347 0.443355ZM22.9142 9.22029L13.3374 11.6137C13.0832 11.6772 12.8499 11.8057 12.6604 11.9867C12.471 12.1677 12.3319 12.3949 12.2569 12.6459L4.50014 38.4968L30.3571 30.7401C30.6066 30.6644 30.8324 30.5254 31.0122 30.3366C31.192 30.1477 31.3199 29.9155 31.3833 29.6626L33.7797 20.0828L22.9142 9.21727V9.22029Z" fill="black"/>
<path fill-rule="evenodd" clip-rule="evenodd" d="M4.76262 38.4187L20.3607 25.6577C20.9576 25.6577 21.5412 25.4807 22.0375 25.1491C22.5338 24.8174 22.9207 24.3461 23.1491 23.7946C23.3776 23.2431 23.4373 22.6362 23.3209 22.0507C23.2044 21.4652 22.917 20.9275 22.4949 20.5054C22.0728 20.0832 21.535 19.7958 20.9495 19.6793C20.364 19.5629 19.7572 19.6226 19.2057 19.8511C18.6542 20.0795 18.1828 20.4664 17.8511 20.9627C17.5195 21.4591 17.3425 22.0426 17.3425 22.6395L4.58153 38.2376L4.50305 38.4972L4.76262 38.4187V38.4187Z" fill="black"/>
</svg>
