<svg width="50" height="42" viewBox="0 0 50 42" fill="none" xmlns="http://www.w3.org/2000/svg">
<path fill-rule="evenodd" clip-rule="evenodd" d="M5.23467 1C2.896 1 1 2.92 1 5.28533V31C1 33.3667 2.896 35.2853 5.23467 35.2853H19.3533V38.1427H13.7053V41H36.2947V38.1427H30.6467V35.2853H44.7653C47.104 35.2853 49 33.3667 49 31V5.28533C49 2.92 47.104 1 44.7653 1H5.23467ZM22.176 38.1427H27.824V35.2853H22.176V38.1427ZM3.824 5.28533C3.824 4.49733 4.456 3.85733 5.23467 3.85733H44.7653C45.544 3.85733 46.176 4.49733 46.176 5.28533V31C46.176 31.7893 45.544 32.428 44.7653 32.428H5.23467C4.456 32.428 3.824 31.788 3.824 31V5.28533ZM13.7053 6.71467H10.8827V9.572H8.05867V12.428H10.8827V15.2853H13.7053V12.428H16.5293V9.57333H13.7053V6.716V6.71467ZM9.47067 18.1427C8.69067 18.1427 8.05733 18.7827 8.05733 19.572V25.2853C8.05733 26.0747 8.69067 26.7147 9.47067 26.7147H15.1173C15.8973 26.7147 16.5293 26.0747 16.5293 25.2853V19.5733C16.5293 18.784 15.8973 18.144 15.1173 18.144H9.47067V18.1427ZM10.8827 23.8573V21H13.7053V23.8573H10.8827ZM20.7653 8.14267C20.7653 7.35333 21.3973 6.71467 22.1773 6.71467H27.824C28.604 6.71467 29.236 7.35467 29.236 8.14267V13.8573C29.236 14.6467 28.604 15.2853 27.8227 15.2853H22.1773C21.3973 15.2853 20.764 14.6453 20.764 13.8573V8.14267H20.7653ZM23.588 9.572V12.428H26.412V9.57333H23.588V9.572ZM22.1773 18.1427C21.3973 18.1427 20.764 18.7827 20.764 19.572V25.2853C20.764 26.0747 21.3973 26.7147 22.1773 26.7147H27.824C28.604 26.7147 29.236 26.0747 29.236 25.2853V19.5733C29.236 18.784 28.604 18.144 27.8227 18.144H22.1773V18.1427ZM23.588 23.8573V21H26.412V23.8573H23.588ZM33.4707 8.14267C33.4707 7.35333 34.1027 6.71467 34.8827 6.71467H40.5293C41.3093 6.71467 41.9413 7.35467 41.9413 8.14267V13.8573C41.9413 14.6467 41.3093 15.2853 40.5293 15.2853H34.8827C34.1027 15.2853 33.4707 14.6453 33.4707 13.8573V8.14267ZM36.2947 9.572V12.428H39.1173V9.57333H36.2947V9.572Z" fill="black" stroke="black"/>
</svg>
